<svg width="16" height="16" viewBox="0 0 16 16" fill="none" xmlns="http://www.w3.org/2000/svg">
<path d="M1.16871 5.37621C0.71806 6.6854 0.683754 8.102 1.07051 9.43146C1.45726 10.7609 2.24611 11.9381 3.32871 12.8012L2.38371 14.7137L3.72621 15.3812L4.61121 13.6112C5.52709 14.0619 6.53421 14.2962 7.55496 14.2962C8.57571 14.2962 9.58284 14.0619 10.4987 13.6112L11.3837 15.3812L12.7262 14.7137L11.7737 12.8012C12.8563 11.9381 13.6452 10.7609 14.0319 9.43146C14.4187 8.102 14.3844 6.6854 13.9337 5.37621C14.2715 5.11586 14.55 4.78647 14.7504 4.41001C14.9509 4.03356 15.0688 3.61868 15.0962 3.19306C15.1237 2.76744 15.06 2.34086 14.9096 1.94177C14.7591 1.54269 14.5253 1.18026 14.2237 0.87868C13.9222 0.577096 13.5597 0.343284 13.1607 0.192839C12.7616 0.0423929 12.335 -0.0212282 11.9094 0.00621878C11.4837 0.0336658 11.0689 0.15155 10.6924 0.352008C10.316 0.552467 9.98656 0.830892 9.72621 1.16871C8.31738 0.680083 6.78505 0.680083 5.37621 1.16871C5.11586 0.830892 4.78647 0.552467 4.41001 0.352008C4.03356 0.15155 3.61868 0.0336658 3.19306 0.00621878C2.76744 -0.0212282 2.34086 0.0423929 1.94177 0.192839C1.54269 0.343284 1.18026 0.577096 0.87868 0.87868C0.577096 1.18026 0.343284 1.54269 0.192839 1.94177C0.0423929 2.34086 -0.0212282 2.76744 0.00621878 3.19306C0.0336658 3.61868 0.15155 4.03356 0.352008 4.41001C0.552467 4.78647 0.830892 5.11586 1.16871 5.37621ZM12.0512 1.55121C12.449 1.55121 12.8306 1.70925 13.1119 1.99055C13.3932 2.27186 13.5512 2.65339 13.5512 3.05121C13.5458 3.37148 13.4381 3.68161 13.2437 3.93621C12.7097 3.09698 11.9979 2.38522 11.1587 1.85121C11.4163 1.65801 11.7292 1.55283 12.0512 1.55121ZM12.8012 7.55121C12.8012 8.58956 12.4933 9.6046 11.9164 10.468C11.3396 11.3313 10.5196 12.0042 9.5603 12.4016C8.60099 12.7989 7.54539 12.9029 6.52699 12.7003C5.50859 12.4978 4.57313 11.9977 3.8389 11.2635C3.10468 10.5293 2.60466 9.59384 2.40209 8.57544C2.19952 7.55704 2.30349 6.50144 2.70085 5.54212C3.09821 4.58281 3.77111 3.76288 4.63447 3.186C5.49783 2.60912 6.51286 2.30121 7.55121 2.30121C8.9436 2.30121 10.279 2.85434 11.2635 3.8389C12.2481 4.82347 12.8012 6.15883 12.8012 7.55121ZM3.05121 1.55121C3.37148 1.55659 3.68161 1.66435 3.93621 1.85871C3.1005 2.39142 2.39142 3.1005 1.85871 3.93621C1.66435 3.68161 1.55659 3.37148 1.55121 3.05121C1.55121 2.65339 1.70925 2.27186 1.99055 1.99055C2.27186 1.70925 2.65339 1.55121 3.05121 1.55121Z" fill="#8E8E8E"/>
<path d="M10.3333 9.26877L8.30078 7.24377V3.80127H6.80078V7.85877L9.26828 10.3338L10.3333 9.26877Z" fill="#8E8E8E"/>
</svg>
