<svg width="20" height="20" viewBox="0 0 20 20" fill="none" xmlns="http://www.w3.org/2000/svg">
<path d="M7.14286 1.25V2.5H12.8571V1.25C12.8571 0.559766 13.4955 0 14.2857 0C15.0759 0 15.7143 0.559766 15.7143 1.25V2.5H17.8571C19.0402 2.5 20 3.33945 20 4.375V6.25H0V4.375C0 3.33945 0.959375 2.5 2.14286 2.5H4.28571V1.25C4.28571 0.559766 4.92411 0 5.71429 0C6.50446 0 7.14286 0.559766 7.14286 1.25ZM0 7.5H20V18.125C20 19.1602 19.0402 20 17.8571 20H2.14286C0.959375 20 0 19.1602 0 18.125V7.5ZM2.85714 11.875C2.85714 12.2188 3.17679 12.5 3.57143 12.5H5C5.39286 12.5 5.71429 12.2188 5.71429 11.875V10.625C5.71429 10.2812 5.39286 10 5 10H3.57143C3.17679 10 2.85714 10.2812 2.85714 10.625V11.875ZM8.57143 11.875C8.57143 12.2188 8.89286 12.5 9.28571 12.5H10.7143C11.1071 12.5 11.4286 12.2188 11.4286 11.875V10.625C11.4286 10.2812 11.1071 10 10.7143 10H9.28571C8.89286 10 8.57143 10.2812 8.57143 10.625V11.875ZM15 10C14.6071 10 14.2857 10.2812 14.2857 10.625V11.875C14.2857 12.2188 14.6071 12.5 15 12.5H16.4286C16.8214 12.5 17.1429 12.2188 17.1429 11.875V10.625C17.1429 10.2812 16.8214 10 16.4286 10H15ZM2.85714 16.875C2.85714 17.2188 3.17679 17.5 3.57143 17.5H5C5.39286 17.5 5.71429 17.2188 5.71429 16.875V15.625C5.71429 15.2812 5.39286 15 5 15H3.57143C3.17679 15 2.85714 15.2812 2.85714 15.625V16.875ZM9.28571 15C8.89286 15 8.57143 15.2812 8.57143 15.625V16.875C8.57143 17.2188 8.89286 17.5 9.28571 17.5H10.7143C11.1071 17.5 11.4286 17.2188 11.4286 16.875V15.625C11.4286 15.2812 11.1071 15 10.7143 15H9.28571ZM14.2857 16.875C14.2857 17.2188 14.6071 17.5 15 17.5H16.4286C16.8214 17.5 17.1429 17.2188 17.1429 16.875V15.625C17.1429 15.2812 16.8214 15 16.4286 15H15C14.6071 15 14.2857 15.2812 14.2857 15.625V16.875Z" fill="black"/>
</svg>
