<svg width="18" height="18" viewBox="0 0 18 18" fill="none" xmlns="http://www.w3.org/2000/svg">
<g clip-path="url(#clip0_2028_2277)">
<path class="bg" d="M9 18C13.9706 18 18 13.9706 18 9C18 4.02944 13.9706 0 9 0C4.02944 0 0 4.02944 0 9C0 13.9706 4.02944 18 9 18Z" fill="black"/>
<path d="M7.63594 13.6688L3.4875 9.52041C3.43125 9.46416 3.43125 9.37979 3.4875 9.32354L4.68281 8.12822C4.73906 8.07197 4.82344 8.07197 4.87969 8.12822L7.73437 10.9829L13.1062 5.61104C13.1625 5.55479 13.2469 5.55479 13.3031 5.61104L14.4984 6.80635C14.5547 6.8626 14.5547 6.94697 14.4984 7.00322L7.83281 13.6688C7.77656 13.7251 7.69219 13.7251 7.63594 13.6688Z" fill="white"/>
</g>
<defs>
<clipPath id="clip0_2028_2277">
<rect width="18" height="18" fill="white"/>
</clipPath>
</defs>
</svg>
