<svg width="16" height="16" viewBox="0 0 16 16" fill="none" xmlns="http://www.w3.org/2000/svg">
<path d="M1.61793 5.82494C1.16728 7.13413 1.13297 8.55073 1.51973 9.88019C1.90648 11.2097 2.69533 12.3868 3.77793 13.2499L2.83293 15.1624L4.17543 15.8299L5.06043 14.0599C5.97631 14.5106 6.98343 14.745 8.00418 14.745C9.02493 14.745 10.0321 14.5106 10.9479 14.0599L11.8329 15.8299L13.1754 15.1624L12.2229 13.2499C13.3055 12.3868 14.0944 11.2097 14.4811 9.88019C14.8679 8.55073 14.8336 7.13413 14.3829 5.82494C14.7208 5.56459 14.9992 5.2352 15.1996 4.85874C15.4001 4.48229 15.518 4.06741 15.5454 3.64179C15.5729 3.21617 15.5093 2.78959 15.3588 2.3905C15.2084 1.99142 14.9745 1.62899 14.673 1.32741C14.3714 1.02583 14.009 0.792015 13.6099 0.641569C13.2108 0.491123 12.7842 0.427502 12.3586 0.454949C11.933 0.482396 11.5181 0.60028 11.1416 0.800739C10.7652 1.0012 10.4358 1.27962 10.1754 1.61744C8.7666 1.12881 7.23427 1.12881 5.82543 1.61744C5.56508 1.27962 5.23569 1.0012 4.85923 0.800739C4.48277 0.60028 4.0679 0.482396 3.64228 0.454949C3.21666 0.427502 2.79008 0.491123 2.39099 0.641569C1.9919 0.792015 1.62948 1.02583 1.3279 1.32741C1.02632 1.62899 0.792503 1.99142 0.642057 2.3905C0.491612 2.78959 0.427991 3.21617 0.455438 3.64179C0.482885 4.06741 0.600769 4.48229 0.801227 4.85874C1.00169 5.2352 1.28011 5.56459 1.61793 5.82494ZM12.5004 1.99994C12.8983 1.99994 13.2798 2.15798 13.5611 2.43928C13.8424 2.72059 14.0004 3.10212 14.0004 3.49994C13.9951 3.82021 13.8873 4.13034 13.6929 4.38494C13.1589 3.54571 12.4472 2.83395 11.6079 2.29994C11.8655 2.10674 12.1784 2.00156 12.5004 1.99994ZM13.2504 7.99994C13.2504 9.0383 12.9425 10.0533 12.3656 10.9167C11.7888 11.78 10.9688 12.453 10.0095 12.8503C9.05021 13.2477 7.99461 13.3516 6.97621 13.1491C5.95781 12.9465 5.02235 12.4465 4.28812 11.7123C3.5539 10.978 3.05388 10.0426 2.85131 9.02417C2.64874 8.00577 2.7527 6.95017 3.15006 5.99086C3.54742 5.03154 4.22033 4.21161 5.08369 3.63473C5.94705 3.05785 6.96208 2.74994 8.00043 2.74994C9.39282 2.74994 10.7282 3.30307 11.7127 4.28763C12.6973 5.2722 13.2504 6.60756 13.2504 7.99994ZM3.50043 1.99994C3.8207 2.00532 4.13083 2.11308 4.38543 2.30744C3.54971 2.84015 2.84064 3.54923 2.30793 4.38494C2.11357 4.13034 2.00581 3.82021 2.00043 3.49994C2.00043 3.10212 2.15847 2.72059 2.43977 2.43928C2.72108 2.15798 3.10261 1.99994 3.50043 1.99994Z" fill="#8E8E8E"/>
<path d="M10.7825 9.7175L8.75 7.6925V4.25H7.25V8.3075L9.7175 10.7825L10.7825 9.7175Z" fill="#8E8E8E"/>
</svg>
