<svg width="60" height="60" viewBox="0 0 60 60" fill="none" xmlns="http://www.w3.org/2000/svg">
<circle cx="30" cy="30" r="30" fill="#12B886"/>
<path d="M36.4949 19.4189L26.441 31.4775L22.9213 27.2578C22.5922 26.8629 22.1886 26.5367 21.7335 26.2978C21.2783 26.0589 20.7806 25.912 20.2687 25.8654C19.7567 25.8189 19.2407 25.8736 18.7499 26.0265C18.2592 26.1794 17.8033 26.4275 17.4084 26.7566C17.0135 27.0857 16.6873 27.4893 16.4484 27.9444C16.2095 28.3996 16.0626 28.8973 16.0161 29.4092C15.9695 29.9211 16.0243 30.4372 16.1772 30.928C16.3301 31.4187 16.5782 31.8746 16.9072 32.2695L23.4339 40.1045C23.8007 40.546 24.2602 40.9013 24.7797 41.1452C25.2993 41.3892 25.8661 41.5158 26.44 41.5162C27.014 41.5166 27.581 41.3906 28.1008 41.1474C28.6207 40.904 29.0806 40.5493 29.448 40.1084L42.509 24.4383C42.8409 24.0437 43.0917 23.5874 43.2469 23.0957C43.4021 22.6039 43.4587 22.0864 43.4134 21.5727C43.3681 21.0591 43.2219 20.5594 42.983 20.1024C42.7441 19.6454 42.4174 19.2401 42.0215 18.9097C41.6256 18.5793 41.1684 18.3303 40.676 18.177C40.1837 18.0238 39.6659 17.9692 39.1525 18.0165C38.639 18.0638 38.1399 18.2121 37.6838 18.4527C37.2278 18.6934 36.8238 19.0217 36.4949 19.4189Z" fill="white"/>
</svg>
