<svg width="15" height="18" viewBox="0 0 15 18" fill="none" xmlns="http://www.w3.org/2000/svg">
<path d="M0 9.60114C0 13.7254 3.34335 17.0687 7.46759 17.0687C11.5918 17.0687 14.9352 13.7254 14.9352 9.60114C14.9352 5.47689 11.5918 2.13354 7.46759 2.13354C3.34335 2.13354 0 5.47689 0 9.60114ZM7.46759 3.20034C11.003 3.20034 13.8684 6.06577 13.8684 9.60114C13.8684 13.1365 11.003 16.0019 7.46759 16.0019C3.93222 16.0019 1.0668 13.1365 1.0668 9.60114C1.0668 6.06577 3.93222 3.20034 7.46759 3.20034Z" fill="#8E8E8E"/>
<path d="M9.60118 0H5.33398V1.0668H9.60118V0Z" fill="#8E8E8E"/>
<path d="M13.4907 1.53571L12.7363 2.29004L14.245 3.79871L14.9993 3.04437L13.4907 1.53571Z" fill="#8E8E8E"/>
<path d="M7.46777 4.26709V9.60109H12.8018C12.8018 6.65565 10.4132 4.26709 7.46777 4.26709Z" fill="#8E8E8E"/>
</svg>
