<svg width="20" height="20" viewBox="0 0 20 20" fill="none" xmlns="http://www.w3.org/2000/svg">
<path fill-rule="evenodd" clip-rule="evenodd" d="M9.99937 0C4.47737 0 0 4.59042 0 10.2531C0 14.7827 2.86447 18.6258 6.83921 19.982C7.33933 20.0756 7.49687 19.7718 7.49687 19.5C7.49687 19.2564 7.50188 18.5758 7.49687 17.7201C4.71555 18.3399 4.13916 16.3696 4.13916 16.3696C3.68467 15.1852 3.02951 14.8698 3.02951 14.8698C2.12178 14.234 3.09765 14.2462 3.09765 14.2462C4.10103 14.3186 4.62991 15.3031 4.62991 15.3031C5.52201 16.8689 6.96987 16.4164 7.53938 16.1549C7.63066 15.4922 7.88947 15.0403 8.17517 14.784C5.95461 14.525 3.62028 13.6456 3.62028 9.71667C3.62028 8.59695 4.00975 7.68232 4.64929 6.96575C4.54614 6.70681 4.2023 5.664 4.74744 4.25201C4.74744 4.25201 5.58702 3.9764 7.49687 5.30379C8.29457 5.07626 9.15041 4.96281 10.0006 4.95896C10.8502 4.96281 11.7054 5.07626 12.5044 5.30379C14.4142 3.97704 15.2526 4.25201 15.2526 4.25201C15.7977 5.664 15.4545 6.70681 15.352 6.96575C15.9915 7.68232 16.3797 8.59695 16.3797 9.71667C16.3797 13.6559 14.0416 14.5224 11.8136 14.7756C12.1724 15.0929 12.4981 15.7082 12.4981 16.6645C12.4981 17.9464 12.4981 19.1654 12.4981 19.5026C12.4981 19.7769 12.6594 20.0801 13.167 19.9807C17.138 18.6226 20 14.7814 20 10.2531C20 4.59042 15.5226 0 9.99937 0Z" fill="#181616"/>
</svg>
