<svg width="20" height="20" viewBox="0 0 20 20" fill="none" xmlns="http://www.w3.org/2000/svg">
<path d="M19.9996 10.229C19.9996 9.54932 19.9434 8.86595 19.8234 8.19727H10.2012V12.0477H15.7114C15.4827 13.2895 14.748 14.3881 13.6722 15.0861V17.5845H16.9596C18.8901 15.843 19.9996 13.2711 19.9996 10.229Z" fill="#4285F4"/>
<path d="M10.2021 19.9987C12.9535 19.9987 15.2738 19.1133 16.9643 17.5849L13.6769 15.0865C12.7623 15.6964 11.5816 16.0417 10.2059 16.0417C7.5445 16.0417 5.28794 14.2819 4.47828 11.9158H1.08594V14.4913C2.81772 17.8678 6.345 19.9987 10.2021 19.9987Z" fill="#34A853"/>
<path d="M4.47376 11.9154C4.04644 10.6735 4.04644 9.32883 4.47376 8.08699V5.51147H1.08517C-0.361724 8.33683 -0.361724 11.6655 1.08517 14.4909L4.47376 11.9154Z" fill="#FBBC04"/>
<path d="M10.2021 3.95764C11.6565 3.9356 13.0622 4.47201 14.1155 5.45666L17.0281 2.60191C15.1838 0.904494 12.7361 -0.0287187 10.2021 0.000673818C6.345 0.000673818 2.81772 2.13163 1.08594 5.51177L4.47453 8.08729C5.28044 5.71752 7.54075 3.95764 10.2021 3.95764Z" fill="#EA4335"/>
</svg>
