<svg width="19" height="17" viewBox="0 0 19 17" fill="none" xmlns="http://www.w3.org/2000/svg">
<path d="M1.16667 2.33333H17.5C18.2 2.33333 18.6667 1.86667 18.6667 1.16667C18.6667 0.466667 18.2 0 17.5 0H1.16667C0.466667 0 0 0.466667 0 1.16667C0 1.86667 0.466667 2.33333 1.16667 2.33333Z" fill="white"/>
<path d="M1.16667 9.33333H17.5C18.2 9.33333 18.6667 8.86667 18.6667 8.16667C18.6667 7.46667 18.2 7 17.5 7H1.16667C0.466667 7 0 7.46667 0 8.16667C0 8.86667 0.466667 9.33333 1.16667 9.33333Z" fill="white"/>
<path d="M1.16667 16.3333H17.5C18.2 16.3333 18.6667 15.8667 18.6667 15.1667C18.6667 14.4667 18.2 14 17.5 14H1.16667C0.466667 14 0 14.4667 0 15.1667C0 15.8667 0.466667 16.3333 1.16667 16.3333Z" fill="white"/>
</svg>
