<svg width="126" height="25" viewBox="0 0 126 25" fill="none" xmlns="http://www.w3.org/2000/svg">
<path d="M5.875 24H0.953125V1.25H5.875V24ZM14.7969 14.7969H4.5625V10.8438H14.7969V14.7969ZM15.875 5.21875H4.5625V1.25H15.875V5.21875ZM27.2231 24H22.3169V1.25H27.2231V24ZM53.6025 24H48.6963L39.8681 9.35938V24H34.9619V1.25H39.8681L48.7119 15.9062V1.25H53.6025V24ZM79.2475 21.125C78.8829 21.5521 78.3256 22.0156 77.5756 22.5156C76.836 23.0052 75.8777 23.4271 74.7006 23.7812C73.534 24.1354 72.1173 24.3125 70.4506 24.3125C68.4819 24.3125 66.7527 23.8854 65.2631 23.0312C63.7735 22.1667 62.6121 20.9115 61.7788 19.2656C60.9558 17.6198 60.5444 15.625 60.5444 13.2812V11.9844C60.5444 9.63021 60.9402 7.63021 61.7319 5.98438C62.534 4.33854 63.6538 3.08333 65.0913 2.21875C66.5288 1.35417 68.2058 0.921875 70.1225 0.921875C72.1329 0.921875 73.7788 1.25 75.06 1.90625C76.3413 2.55208 77.3152 3.44792 77.9819 4.59375C78.659 5.73958 79.0756 7.05729 79.2319 8.54688H74.4663C74.3621 7.78646 74.1485 7.13542 73.8256 6.59375C73.5131 6.04167 73.0704 5.61979 72.4975 5.32812C71.9246 5.02604 71.1798 4.875 70.2631 4.875C69.2527 4.875 68.3933 5.14062 67.685 5.67188C66.9767 6.20312 66.435 6.99479 66.06 8.04688C65.6954 9.08854 65.5131 10.3906 65.5131 11.9531V13.2812C65.5131 14.8333 65.711 16.1354 66.1069 17.1875C66.5027 18.2396 67.086 19.0312 67.8569 19.5625C68.6381 20.0938 69.6017 20.3594 70.7475 20.3594C71.4558 20.3594 72.0444 20.3021 72.5131 20.1875C72.9819 20.0729 73.3621 19.9375 73.6538 19.7812C73.9454 19.6146 74.1694 19.4583 74.3256 19.3125V15.5312H70.2006V11.9531H79.2475V21.125ZM101.768 24H89.7519V20.0469H101.768V24ZM91.33 24H86.4081V1.25H91.33V24ZM100.205 14.2188H89.7519V10.3906H100.205V14.2188ZM101.752 5.21875H89.7519V1.25H101.752V5.21875ZM116.506 1.25C118.267 1.25 119.777 1.51562 121.037 2.04688C122.308 2.56771 123.282 3.33854 123.959 4.35938C124.636 5.36979 124.975 6.625 124.975 8.125C124.975 9.375 124.767 10.4375 124.35 11.3125C123.944 12.1875 123.371 12.9115 122.631 13.4844C121.892 14.0573 121.022 14.5208 120.022 14.875L118.459 15.7656H111.162L111.131 11.7969H116.491C117.282 11.7969 117.944 11.6667 118.475 11.4062C119.006 11.1354 119.402 10.7552 119.662 10.2656C119.923 9.77604 120.053 9.19792 120.053 8.53125C120.053 7.51042 119.761 6.70312 119.178 6.10938C118.605 5.51562 117.715 5.21875 116.506 5.21875H112.85V24H107.944V1.25H116.506ZM115.412 13.8906L120.6 13.8594L125.803 23.7656V24H120.537L115.412 13.8906Z" fill="white"/>
</svg>
