<svg width="14" height="15" viewBox="0 0 14 15" fill="none" xmlns="http://www.w3.org/2000/svg">
<path d="M6.99935 7C8.8403 7 10.3327 5.50762 10.3327 3.66667C10.3327 1.82572 8.8403 0.333336 6.99935 0.333336C5.1584 0.333336 3.66602 1.82572 3.66602 3.66667C3.66602 5.50762 5.1584 7 6.99935 7Z" fill="#BCBCBC"/>
<path d="M13.6673 12.8333V13.6667C13.6673 13.8877 13.5795 14.0996 13.4232 14.2559C13.267 14.4122 13.055 14.5 12.834 14.5H1.16732C0.946304 14.5 0.734343 14.4122 0.578062 14.2559C0.421782 14.0996 0.333984 13.8877 0.333984 13.6667V12.8333C0.333984 11.5073 0.860769 10.2355 1.79845 9.2978C2.73613 8.36012 4.0079 7.83334 5.33398 7.83334H8.66732C9.9934 7.83334 11.2652 8.36012 12.2029 9.2978C13.1405 10.2355 13.6673 11.5073 13.6673 12.8333Z" fill="#BCBCBC"/>
</svg>
