<svg width="25" height="25" viewBox="0 0 25 25" fill="none" xmlns="http://www.w3.org/2000/svg">
<path d="M12.4997 12.5001C14.8009 12.5001 16.6663 10.6346 16.6663 8.33342C16.6663 6.03223 14.8009 4.16675 12.4997 4.16675C10.1985 4.16675 8.33301 6.03223 8.33301 8.33342C8.33301 10.6346 10.1985 12.5001 12.4997 12.5001Z" fill="#BCBCBC"/>
<path d="M20.8337 19.7917V20.8334C20.8337 21.1097 20.7239 21.3746 20.5286 21.57C20.3332 21.7653 20.0683 21.8751 19.792 21.8751H5.20866C4.93239 21.8751 4.66744 21.7653 4.47209 21.57C4.27674 21.3746 4.16699 21.1097 4.16699 20.8334V19.7917C4.16699 18.1341 4.82547 16.5444 5.99757 15.3723C7.16968 14.2002 8.75939 13.5417 10.417 13.5417H14.5837C16.2413 13.5417 17.831 14.2002 19.0031 15.3723C20.1752 16.5444 20.8337 18.1341 20.8337 19.7917Z" fill="#BCBCBC"/>
</svg>
