<svg width="11" height="13" viewBox="0 0 11 13" fill="none" xmlns="http://www.w3.org/2000/svg">
<path d="M7.86643 2.33053C8.50999 2.33053 9.0317 1.80882 9.0317 1.16526C9.0317 0.521706 8.50999 0 7.86643 0C7.22288 0 6.70117 0.521706 6.70117 1.16526C6.70117 1.80882 7.22288 2.33053 7.86643 2.33053Z" fill="#8E8E8E"/>
<path d="M10.6913 2.76751C10.4 2.62185 10.0504 2.72381 9.90474 3.01513L9.39493 3.97647L7.1518 2.56359C7.06441 2.50533 6.96245 2.4762 6.84592 2.4762H4.36974C4.15125 2.4762 3.96189 2.59272 3.85993 2.78208L2.91316 4.52997C2.75293 4.80672 2.86946 5.17087 3.14621 5.31652C3.23361 5.36022 3.33557 5.38935 3.42296 5.38935C3.62688 5.38935 3.8308 5.27283 3.93276 5.08347L4.71932 3.64146H5.5787L3.00055 8.44817H0.582632C0.262184 8.44817 0 8.71035 0 9.0308C0 9.35125 0.262184 9.61343 0.582632 9.61343H3.35013C3.56862 9.61343 3.75797 9.49691 3.85993 9.30755L4.87954 7.42856L6.55461 8.9871L6.42351 11.9148C6.39438 12.2353 6.642 12.512 6.96245 12.5266C6.97701 12.5266 6.97701 12.5266 6.99158 12.5266C7.29746 12.5266 7.55964 12.279 7.57421 11.9731L7.71987 8.76862C7.73443 8.59383 7.66161 8.4336 7.53051 8.31708L6.11763 7.00616L7.60334 4.23866L9.29297 5.30196C9.42407 5.38935 9.59886 5.41849 9.75908 5.37479C9.9193 5.33109 10.0504 5.22913 10.1232 5.08347L10.9243 3.55406C11.0846 3.27731 10.9826 2.92774 10.6913 2.76751Z" fill="#8E8E8E"/>
</svg>
