<svg width="11" height="11" viewBox="0 0 11 11" fill="none" xmlns="http://www.w3.org/2000/svg">
<path d="M2.75 10.1922V4.69219C2.75 4.25833 2.44213 3.92857 2.0625 3.92857H0.6875C0.307871 3.92857 0 4.28042 0 4.69219V10.1701C0 10.604 0.307871 10.9337 0.6875 10.9337H2.0625C2.44277 10.9779 2.75 10.6464 2.75 10.1922ZM11 4.71674C11 4.06607 10.5385 3.53866 9.96875 3.53866H6.82129C7.31049 2.60783 7.56293 1.55277 7.56293 1.18103C7.5625 0.602054 7.16504 0 6.49902 0C5.14271 0 5.9327 1.86975 4.17441 3.47679L3.82422 3.79598C3.5707 4.02924 3.4418 4.37054 3.43965 4.71429L3.4375 8.64286C3.4375 9.01362 3.59032 9.36301 3.85 9.58547L4.58348 10.2138C5.17773 10.725 5.90176 11 6.64512 11H7.90625C8.47602 11 8.9375 10.4728 8.9375 9.82192C8.9375 9.73267 8.92718 9.64653 8.91073 9.56288C9.32422 9.40893 9.625 8.97188 9.625 8.44643C9.625 8.22181 9.56706 8.01404 9.47162 7.83554C9.94941 7.73437 10.3125 7.25558 10.3125 6.68103C10.3125 6.37411 10.2074 6.09714 10.0392 5.88745C10.5746 5.84621 11 5.3404 11 4.71674Z" fill="#EFEFEF"/>
</svg>
